<?xml version="1.0" encoding="UTF-8"?>
<svg xmlns="http://www.w3.org/2000/svg" xmlns:xlink="http://www.w3.org/1999/xlink" viewBox="0 0 26 26" version="1.1" width="26px" height="26px">
<g id="surface1">
<path style=" " d="M 4.875 0 C 2.183594 0 0 2.183594 0 4.875 L 0 21.125 C 0 23.816406 2.183594 26 4.875 26 L 21.125 26 C 23.816406 26 26 23.816406 26 21.125 L 26 4.875 C 26 2.183594 23.816406 0 21.125 0 Z M 4.875 2 L 21.125 2 C 22.710938 2 24 3.289063 24 4.875 L 24 9 L 19.90625 9 C 18.519531 6.613281 15.953125 5 13 5 C 10.046875 5 7.480469 6.613281 6.09375 9 L 2 9 L 2 4.875 C 2 3.289063 3.289063 2 4.875 2 Z M 20 3 C 19.449219 3 19 3.449219 19 4 L 19 6 C 19 6.550781 19.449219 7 20 7 L 22 7 C 22.550781 7 23 6.550781 23 6 L 23 4 C 23 3.449219 22.550781 3 22 3 Z M 13 7 C 14.777344 7 16.371094 7.773438 17.46875 9 C 17.480469 9.011719 17.492188 9.019531 17.5 9.03125 C 17.546875 9.082031 17.582031 9.136719 17.625 9.1875 C 17.746094 9.335938 17.859375 9.496094 17.96875 9.65625 C 18.011719 9.71875 18.054688 9.777344 18.09375 9.84375 C 18.253906 10.101563 18.410156 10.375 18.53125 10.65625 C 18.554688 10.707031 18.574219 10.761719 18.59375 10.8125 C 18.644531 10.941406 18.675781 11.085938 18.71875 11.21875 C 18.753906 11.332031 18.785156 11.449219 18.8125 11.5625 C 18.832031 11.636719 18.859375 11.707031 18.875 11.78125 C 18.882813 11.8125 18.898438 11.84375 18.90625 11.875 C 18.9375 12.039063 18.953125 12.207031 18.96875 12.375 C 18.992188 12.582031 19 12.785156 19 13 C 19 14.242188 18.617188 15.386719 17.96875 16.34375 C 16.996094 17.78125 15.441406 18.785156 13.625 18.96875 C 13.421875 18.988281 13.207031 19 13 19 C 11.136719 19 9.476563 18.144531 8.375 16.8125 C 8.253906 16.664063 8.140625 16.503906 8.03125 16.34375 C 7.382813 15.386719 7 14.242188 7 13 C 7 12.8125 7.015625 12.621094 7.03125 12.4375 C 7.035156 12.417969 7.027344 12.394531 7.03125 12.375 C 7.035156 12.320313 7.054688 12.273438 7.0625 12.21875 C 7.082031 12.074219 7.09375 11.925781 7.125 11.78125 C 7.15625 11.628906 7.207031 11.492188 7.25 11.34375 C 7.261719 11.304688 7.269531 11.257813 7.28125 11.21875 C 7.296875 11.167969 7.296875 11.113281 7.3125 11.0625 C 7.347656 10.957031 7.394531 10.851563 7.4375 10.75 C 7.449219 10.71875 7.457031 10.6875 7.46875 10.65625 C 7.589844 10.375 7.746094 10.101563 7.90625 9.84375 C 7.945313 9.777344 7.988281 9.71875 8.03125 9.65625 C 8.175781 9.441406 8.328125 9.226563 8.5 9.03125 C 8.511719 9.019531 8.519531 9.011719 8.53125 9 C 9.628906 7.773438 11.222656 7 13 7 Z M 13 9.1875 C 12.273438 9.1875 11.609375 9.398438 11.03125 9.75 C 11.210938 9.695313 11.398438 9.65625 11.59375 9.65625 C 12.660156 9.65625 13.53125 10.523438 13.53125 11.59375 C 13.53125 12.660156 12.660156 13.53125 11.59375 13.53125 C 10.527344 13.53125 9.65625 12.660156 9.65625 11.59375 C 9.65625 11.394531 9.695313 11.210938 9.75 11.03125 C 9.398438 11.609375 9.1875 12.273438 9.1875 13 C 9.1875 15.105469 10.890625 16.8125 13 16.8125 C 15.105469 16.8125 16.8125 15.109375 16.8125 13 C 16.8125 10.890625 15.105469 9.1875 13 9.1875 Z "/>
</g>
</svg>
